<svg width="105" height="93" viewBox="0 0 105 93" fill="none" xmlns="http://www.w3.org/2000/svg">
<path d="M5.6737 24.2394C7.49703 24.5974 9.38646 24.2096 10.9269 23.161C12.4673 22.1125 13.5327 20.4891 13.8891 18.6474L13.8934 18.6485C13.9754 18.2497 14.533 16.6621 15.3452 15.6977C15.7475 15.1998 16.1573 14.8478 16.6168 14.6059C17.0881 14.3684 17.6285 14.1712 18.6941 14.1603C19.2754 14.1788 19.7899 14.2921 21.0087 15.154C22.8045 16.4071 25.2226 19.335 28.3407 22.4383C29.9295 23.979 31.7598 25.584 34.1035 26.9025C36.4246 28.2166 39.3604 29.1875 42.5519 29.1755H42.6446C48.5994 29.1755 53.0786 27.6805 56.0792 24.8954C58.6246 22.5385 59.4119 19.7981 59.6072 18.2998C59.8229 17.8727 60.0828 17.4401 60.3773 17.0903C60.7817 16.5923 61.1916 16.2426 61.6521 15.9974C62.1202 15.7609 62.6638 15.5648 63.7284 15.5539C64.3086 15.5724 64.8263 15.6847 66.0419 16.5477C67.8377 17.7975 70.2569 20.7275 73.3761 23.8308C74.9648 25.3727 76.7973 26.9766 79.1399 28.2951C81.461 29.6114 84.3968 30.5801 87.5883 30.5692H87.6821C93.6369 30.5692 98.1161 29.0742 101.117 26.288C104.143 23.4843 104.693 20.1173 104.705 18.971C104.743 18.0418 104.599 17.1142 104.282 16.2411C103.965 15.368 103.481 14.5665 102.857 13.8825C102.234 13.1985 101.483 12.6453 100.647 12.2545C99.812 11.8637 98.9086 11.643 97.9889 11.605C96.5509 11.5446 95.1294 11.9329 93.9176 12.7172C92.7057 13.5015 91.7623 14.6437 91.2155 15.9887C90.6298 16.1706 89.4941 16.4049 87.5883 16.4027C86.9174 16.3842 86.3587 16.2447 85.1292 15.3839C83.315 14.1341 80.9044 11.2313 77.8219 8.14217C76.2515 6.61013 74.4449 5.00945 72.1282 3.68554C69.833 2.36489 66.9133 1.37768 63.7305 1.39184C60.0861 1.37441 56.736 2.40848 54.1507 4.02442C50.2366 6.46521 48.1 9.81586 46.8683 12.3732C46.5126 13.1221 46.1958 13.8891 45.9191 14.6713C45.2817 14.8369 44.2085 15.0145 42.553 15.0124C41.8821 14.9938 41.3234 14.8533 40.0938 13.9946C38.2808 12.7437 35.8691 9.83983 32.7866 6.75288C31.2151 5.21757 29.4096 3.61907 27.0918 2.29407C24.7977 0.973421 21.8769 -0.0127039 18.6952 0.000371769C15.0475 -0.0225107 11.6996 1.01265 9.11431 2.6275C5.20021 5.0672 3.0625 8.41785 1.83078 10.9763C0.601222 13.5675 0.210783 15.5321 0.128812 15.9353C-0.0468738 16.8484 -0.0428093 17.7875 0.140773 18.699C0.324356 19.6105 0.683861 20.4765 1.19876 21.2476C1.71366 22.0188 2.37386 22.6799 3.14168 23.1932C3.90949 23.7065 4.76988 24.062 5.6737 24.2394ZM5.67262 55.1645C7.49618 55.5226 9.38588 55.135 10.9268 54.0867C12.4677 53.0385 13.5339 51.4153 13.8913 49.5736H13.8934C13.9754 49.1748 14.533 47.5861 15.3462 46.6239C15.7485 46.126 16.1584 45.7762 16.6168 45.5321C17.087 45.2967 17.6306 45.0973 18.6952 45.0875C19.2754 45.1039 19.7921 45.2183 21.0098 46.0791C22.8034 47.3333 25.2237 50.2601 28.3418 53.3633C29.9316 54.9041 31.7641 56.5059 34.1067 57.8254C36.4116 59.1308 39.3227 60.0984 42.4882 60.0984H42.554C48.5562 60.1137 53.0657 58.6198 56.0813 55.8194C58.6235 53.4647 59.413 50.7275 59.6093 49.2282C59.8207 48.7961 60.0797 48.3896 60.3816 48.0165C60.786 47.5185 61.1959 47.1677 61.6564 46.9236C62.1245 46.6871 62.6681 46.4888 63.7327 46.4801C64.3129 46.4953 64.8306 46.6108 66.0473 47.4738C67.8409 48.7237 70.2601 51.6515 73.3793 54.7548C74.968 56.2956 76.8005 57.9006 79.1432 59.2191C81.4642 60.5343 84.4001 61.5041 87.5915 61.4921H87.6854C93.6401 61.4921 98.1172 59.9971 101.12 57.213C104.146 54.4105 104.696 51.0413 104.708 49.8961C104.785 48.0196 104.12 46.1893 102.86 44.8079C101.601 43.4265 99.8496 42.6072 97.9921 42.5301C96.5545 42.4698 95.1333 42.8579 93.9215 43.6418C92.7098 44.4256 91.7661 45.5672 91.2187 46.9116C90.6342 47.0936 89.4973 47.3278 87.5915 47.3257C86.9207 47.3071 86.362 47.1677 85.1324 46.3068C83.3183 45.0559 80.9077 42.1553 77.8252 39.0662C76.2526 37.532 74.4482 35.9324 72.1314 34.6095C69.8363 33.2889 66.9144 32.3017 63.7337 32.3137C60.0893 32.2973 56.7393 33.3325 54.154 34.9473C50.2399 37.3881 48.1032 40.7377 46.8715 43.294C46.5161 44.0428 46.1997 44.8099 45.9235 45.592C45.286 45.7577 44.2129 45.9353 42.5562 45.9342C41.8875 45.9157 41.3277 45.7751 40.0981 44.9154C38.284 43.6645 35.8723 40.7627 32.7898 37.6736C31.2173 36.1394 29.4128 34.5398 27.0972 33.2159C24.8009 31.8974 21.8812 30.9091 18.6984 30.9211C15.0529 30.9059 11.7039 31.9399 9.1197 33.5548C5.20237 35.9934 3.06897 39.344 1.83618 41.9025C0.605536 44.4937 0.217254 46.4583 0.133126 46.8626C-0.0433374 47.7752 -0.0399937 48.714 0.142966 49.6253C0.325926 50.5367 0.684912 51.4026 1.1994 52.1737C1.71388 52.9447 2.37377 53.6057 3.14132 54.1189C3.90888 54.6321 4.76904 54.9874 5.67262 55.1645ZM97.9878 73.4552C96.55 73.3956 95.1288 73.7842 93.9171 74.5684C92.7054 75.3526 91.7619 76.4944 91.2144 77.8389C90.6298 78.0197 89.4941 78.2562 87.5872 78.254C86.9185 78.2333 86.3577 78.0949 85.1302 77.2352C83.3161 75.9832 80.9034 73.0815 77.8208 69.9913C76.2505 68.4571 74.446 66.8586 72.1293 65.5335C69.8341 64.2129 66.9123 63.2268 63.7316 63.2377C60.085 63.2224 56.7371 64.2576 54.1497 65.8724C50.2355 68.3121 48.1011 71.6628 46.8672 74.2191C46.5109 74.9689 46.1937 75.7371 45.917 76.5204C45.2796 76.6849 44.2075 76.8625 42.553 76.8615C41.8842 76.8397 41.3255 76.7024 40.0949 75.8427C38.2808 74.5917 35.8702 71.6878 32.7866 68.5998C31.2151 67.0667 29.4107 65.466 27.0939 64.1399C24.7988 62.8203 21.878 61.832 18.6952 61.8462C15.0496 61.8299 11.7007 62.8639 9.11431 64.4799C5.19913 66.9196 3.06466 70.2691 1.83294 72.8276C0.602301 75.4177 0.21294 77.3834 0.12989 77.7866C-0.224949 79.6305 0.159781 81.5413 1.19945 83.0986C2.23911 84.6559 3.84854 85.7322 5.6737 86.0907C7.49713 86.4488 9.3867 86.0611 10.9274 85.0129C12.4682 83.9646 13.5342 82.3414 13.8913 80.4998L13.8956 80.5009C13.9786 80.101 14.5352 78.5134 15.3462 77.5479C15.7496 77.05 16.1595 76.7013 16.6189 76.4561C17.0892 76.2197 17.6306 76.0213 18.6952 76.0126C19.2744 76.029 19.7921 76.1434 21.0087 77.0053C22.8045 78.2562 25.2248 81.1852 28.3418 84.2906C29.9305 85.8303 31.7619 87.4353 34.1057 88.7549C36.4278 90.069 39.3626 91.0399 42.553 91.0279H42.6468C48.6026 91.0279 53.0819 89.5329 56.0824 86.7467C58.6246 84.3898 59.4141 81.6493 59.6104 80.1522C59.8215 79.7203 60.0806 79.3142 60.3827 78.9416C60.7839 78.4436 61.1959 78.0928 61.6543 77.8487C62.1245 77.6122 62.666 77.4139 63.7327 77.4052C64.3129 77.4215 64.8285 77.5359 66.0462 78.3968C67.8398 79.6488 70.259 82.5788 73.3783 85.6821C74.967 87.2229 76.7995 88.8279 79.1421 90.1464C81.4632 91.4627 84.399 92.4313 87.5905 92.4204H87.6843C93.6401 92.4204 98.1215 90.9255 101.121 88.1382C104.145 85.3356 104.698 81.9664 104.709 80.8212C104.784 78.9443 104.117 77.1143 102.857 75.7333C101.597 74.3522 99.8455 73.5329 97.9878 73.4552Z" fill="url(#paint0_linear_1143_65448)"/>
<defs>
<linearGradient id="paint0_linear_1143_65448" x1="-1.272" y1="-0.502995" x2="93.9762" y2="43.4603" gradientUnits="userSpaceOnUse">
<stop stop-color="#288B58"/>
<stop offset="1" stop-color="#1522F1"/>
</linearGradient>
</defs>
</svg>
